# xmcd
#
# Track frame offsets:
#	150
#	15037
#	30998
#	46288
#	67728
#	83767
#	98388
#	119337
#	132325
#	153199
#	170007
#	181536
#	196002
#
# Disc length: 2890 seconds
#
# Revision: 1
# Processed by: cddbd v1.5.2PL0 Copyright (c) Steve Scherf et al.
# Submitted via: audiograbber 1.81.02
#
DISCID=830b480d
DTITLE=Thomas Michael - Hard Man To Love
DYEAR=2006
DGENRE=Country
TTITLE0=Baby I Know
TTITLE1=Hard Man To Love
TTITLE2=Bad News
TTITLE3=(Don't Make Me Miss) Georgia
TTITLE4=Rum Rum
TTITLE5=Back In The Day
TTITLE6=When I Drink With My Friends
TTITLE7=Tired of Holdin'
TTITLE8=Love Song
TTITLE9=Gettin' Drunk
TTITLE10=She's Country
TTITLE11=What Would John Wayne Do
TTITLE12=Gabe's Song
EXTD=
EXTT0=
EXTT1=
EXTT2=
EXTT3=
EXTT4=
EXTT5=
EXTT6=
EXTT7=
EXTT8=
EXTT9=
EXTT10=
EXTT11=
EXTT12=
PLAYORDER=
